<svg id="visual" viewBox="0 0 900 600" width="900" height="600" xmlns="http://www.w3.org/2000/svg" xmlns:xlink="http://www.w3.org/1999/xlink" version="1.1"><rect x="0" y="0" width="900" height="600" fill="#004FFB"></rect><path d="M0 175L60 175L60 201L120 201L120 237L180 237L180 255L240 255L240 201L300 201L300 175L360 175L360 175L420 175L420 139L480 139L480 270L540 270L540 195L600 195L600 235L660 235L660 145L720 145L720 285L780 285L780 170L840 170L840 177L900 177L900 186L900 601L900 601L840 601L840 601L780 601L780 601L720 601L720 601L660 601L660 601L600 601L600 601L540 601L540 601L480 601L480 601L420 601L420 601L360 601L360 601L300 601L300 601L240 601L240 601L180 601L180 601L120 601L120 601L60 601L60 601L0 601Z" fill="#004ffb"></path><path d="M0 257L60 257L60 197L120 197L120 212L180 212L180 224L240 224L240 320L300 320L300 307L360 307L360 229L420 229L420 194L480 194L480 285L540 285L540 224L600 224L600 274L660 274L660 236L720 236L720 265L780 265L780 308L840 308L840 244L900 244L900 222L900 601L900 601L840 601L840 601L780 601L780 601L720 601L720 601L660 601L660 601L600 601L600 601L540 601L540 601L480 601L480 601L420 601L420 601L360 601L360 601L300 601L300 601L240 601L240 601L180 601L180 601L120 601L120 601L60 601L60 601L0 601Z" fill="#485dfc"></path><path d="M0 306L60 306L60 273L120 273L120 244L180 244L180 241L240 241L240 334L300 334L300 302L360 302L360 278L420 278L420 301L480 301L480 337L540 337L540 261L600 261L600 349L660 349L660 249L720 249L720 302L780 302L780 291L840 291L840 218L900 218L900 288L900 601L900 601L840 601L840 601L780 601L780 601L720 601L720 601L660 601L660 601L600 601L600 601L540 601L540 601L480 601L480 601L420 601L420 601L360 601L360 601L300 601L300 601L240 601L240 601L180 601L180 601L120 601L120 601L60 601L60 601L0 601Z" fill="#666cfd"></path><path d="M0 330L60 330L60 319L120 319L120 307L180 307L180 362L240 362L240 347L300 347L300 266L360 266L360 289L420 289L420 361L480 361L480 368L540 368L540 275L600 275L600 293L660 293L660 370L720 370L720 262L780 262L780 356L840 356L840 249L900 249L900 259L900 601L900 601L840 601L840 601L780 601L780 601L720 601L720 601L660 601L660 601L600 601L600 601L540 601L540 601L480 601L480 601L420 601L420 601L360 601L360 601L300 601L300 601L240 601L240 601L180 601L180 601L120 601L120 601L60 601L60 601L0 601Z" fill="#7e7cfe"></path><path d="M0 362L60 362L60 390L120 390L120 390L180 390L180 380L240 380L240 340L300 340L300 359L360 359L360 378L420 378L420 343L480 343L480 359L540 359L540 282L600 282L600 317L660 317L660 284L720 284L720 319L780 319L780 287L840 287L840 337L900 337L900 314L900 601L900 601L840 601L840 601L780 601L780 601L720 601L720 601L660 601L660 601L600 601L600 601L540 601L540 601L480 601L480 601L420 601L420 601L360 601L360 601L300 601L300 601L240 601L240 601L180 601L180 601L120 601L120 601L60 601L60 601L0 601Z" fill="#928bfe"></path><path d="M0 384L60 384L60 416L120 416L120 336L180 336L180 335L240 335L240 343L300 343L300 321L360 321L360 361L420 361L420 403L480 403L480 323L540 323L540 395L600 395L600 339L660 339L660 358L720 358L720 406L780 406L780 351L840 351L840 379L900 379L900 341L900 601L900 601L840 601L840 601L780 601L780 601L720 601L720 601L660 601L660 601L600 601L600 601L540 601L540 601L480 601L480 601L420 601L420 601L360 601L360 601L300 601L300 601L240 601L240 601L180 601L180 601L120 601L120 601L60 601L60 601L0 601Z" fill="#a49bff"></path><path d="M0 365L60 365L60 445L120 445L120 440L180 440L180 430L240 430L240 372L300 372L300 357L360 357L360 410L420 410L420 391L480 391L480 400L540 400L540 395L600 395L600 439L660 439L660 440L720 440L720 420L780 420L780 395L840 395L840 456L900 456L900 455L900 601L900 601L840 601L840 601L780 601L780 601L720 601L720 601L660 601L660 601L600 601L600 601L540 601L540 601L480 601L480 601L420 601L420 601L360 601L360 601L300 601L300 601L240 601L240 601L180 601L180 601L120 601L120 601L60 601L60 601L0 601Z" fill="#b5abff"></path><path d="M0 481L60 481L60 452L120 452L120 420L180 420L180 454L240 454L240 405L300 405L300 410L360 410L360 457L420 457L420 429L480 429L480 410L540 410L540 436L600 436L600 477L660 477L660 432L720 432L720 448L780 448L780 404L840 404L840 396L900 396L900 405L900 601L900 601L840 601L840 601L780 601L780 601L720 601L720 601L660 601L660 601L600 601L600 601L540 601L540 601L480 601L480 601L420 601L420 601L360 601L360 601L300 601L300 601L240 601L240 601L180 601L180 601L120 601L120 601L60 601L60 601L0 601Z" fill="#c5bbff"></path><path d="M0 474L60 474L60 478L120 478L120 460L180 460L180 471L240 471L240 457L300 457L300 442L360 442L360 472L420 472L420 510L480 510L480 488L540 488L540 490L600 490L600 432L660 432L660 507L720 507L720 488L780 488L780 458L840 458L840 450L900 450L900 458L900 601L900 601L840 601L840 601L780 601L780 601L720 601L720 601L660 601L660 601L600 601L600 601L540 601L540 601L480 601L480 601L420 601L420 601L360 601L360 601L300 601L300 601L240 601L240 601L180 601L180 601L120 601L120 601L60 601L60 601L0 601Z" fill="#d4ccff"></path><path d="M0 507L60 507L60 501L120 501L120 506L180 506L180 497L240 497L240 519L300 519L300 493L360 493L360 523L420 523L420 490L480 490L480 470L540 470L540 507L600 507L600 500L660 500L660 537L720 537L720 485L780 485L780 521L840 521L840 492L900 492L900 532L900 601L900 601L840 601L840 601L780 601L780 601L720 601L720 601L660 601L660 601L600 601L600 601L540 601L540 601L480 601L480 601L420 601L420 601L360 601L360 601L300 601L300 601L240 601L240 601L180 601L180 601L120 601L120 601L60 601L60 601L0 601Z" fill="#e3ddff"></path><path d="M0 534L60 534L60 551L120 551L120 502L180 502L180 549L240 549L240 555L300 555L300 539L360 539L360 526L420 526L420 522L480 522L480 558L540 558L540 542L600 542L600 525L660 525L660 533L720 533L720 562L780 562L780 561L840 561L840 528L900 528L900 536L900 601L900 601L840 601L840 601L780 601L780 601L720 601L720 601L660 601L660 601L600 601L600 601L540 601L540 601L480 601L480 601L420 601L420 601L360 601L360 601L300 601L300 601L240 601L240 601L180 601L180 601L120 601L120 601L60 601L60 601L0 601Z" fill="#f1eeff"></path><path d="M0 565L60 565L60 556L120 556L120 588L180 588L180 537L240 537L240 545L300 545L300 560L360 560L360 534L420 534L420 587L480 587L480 557L540 557L540 544L600 544L600 567L660 567L660 563L720 563L720 544L780 544L780 555L840 555L840 536L900 536L900 553L900 601L900 601L840 601L840 601L780 601L780 601L720 601L720 601L660 601L660 601L600 601L600 601L540 601L540 601L480 601L480 601L420 601L420 601L360 601L360 601L300 601L300 601L240 601L240 601L180 601L180 601L120 601L120 601L60 601L60 601L0 601Z" fill="#ffffff"></path></svg>